<svg xmlns="http://www.w3.org/2000/svg" viewBox="0 0 44.94 51.1"><defs><style>.cls-1{fill:#1dbdc6;}</style></defs><g id="Layer_2" data-name="Layer 2"><g id="Layer_1-2" data-name="Layer 1"><path class="cls-1" d="M26.92,5.64l-2.2-2.58L24.63,0l-.1,3.06-2.2,2.58h-.54v19.9l.49-.4V23.68h.44v1.11l.41-.34v-.77h.44v.42l.41-.33v-.09h.11l.27-.22.47.38v-.16h.44v.52l.42.34v-.86h.43v1.2l.42.34V23.68H27v1.89l.49.4V5.64Zm-4.2,17.45h-.44V21.18h.44Zm0-2.5h-.44V18.68h.44Zm0-2.5h-.44V16.18h.44Zm0-2.5h-.44V13.67h.44Zm0-2.5h-.44V11.17h.44Zm0-2.5h-.44V8.67h.44Zm0-2.5h-.44V6.17h.44Zm.85,15h-.44V21.18h.44Zm0-2.5h-.44V18.68h.44Zm0-2.5h-.44V16.18h.44Zm0-2.5h-.44V13.67h.44Zm0-2.5h-.44V11.17h.44Zm0-2.5h-.44V8.67h.44Zm0-2.5h-.44V6.17h.44Zm.85,15H24V21.18h.44Zm0-2.5H24V18.68h.44Zm0-2.5H24V16.18h.44Zm0-2.5H24V13.67h.44Zm0-2.5H24V11.17h.44Zm0-2.5H24V8.67h.44Zm0-2.5H24V6.17h.44Zm.85,15h-.44V21.18h.44Zm0-2.5h-.44V18.68h.44Zm0-2.5h-.44V16.18h.44Zm0-2.5h-.44V13.67h.44Zm0-2.5h-.44V11.17h.44Zm0-2.5h-.44V8.67h.44Zm0-2.5h-.44V6.17h.44Zm.85,15h-.43V21.18h.43Zm0-2.5h-.43V18.68h.43Zm0-2.5h-.43V16.18h.43Zm0-2.5h-.43V13.67h.43Zm0-2.5h-.43V11.17h.43Zm0-2.5h-.43V8.67h.43Zm0-2.5h-.43V6.17h.43Zm.85,15h-.43V21.18H27Zm0-2.5h-.43V18.68H27Zm0-2.5h-.43V16.18H27Zm0-2.5h-.43V13.67H27Zm0-2.5h-.43V11.17H27Zm0-2.5h-.43V8.67H27Zm0-2.5h-.43V6.17H27Z"/><path class="cls-1" d="M18.44,6.94v.77H17.19v.77H16v.77H15V27.71a2.23,2.23,0,0,1,.61.32h.83v.65l.31.25V28h.9v.9l.31-.25V28h.8l.63-.51h-.22v-.9H20V27l.54-.44V6.94ZM16.39,27.52h-.9v-.9h.9Zm0-1.4h-.9v-.9h.9Zm0-1.41h-.9v-.9h.9Zm0-1.4h-.9V22.4h.9Zm0-1.41h-.9V21h.9Zm0-1.41h-.9v-.9h.9Zm0-1.4h-.9v-.9h.9Zm0-1.41h-.9v-.9h.9Zm0-1.4h-.9v-.91h.9Zm0-1.41h-.9V14h.9Zm0-1.41h-.9v-.9h.9Zm0-1.4h-.9v-.9h.9Zm0-1.41h-.9v-.9h.9ZM17.6,27.52h-.9v-.9h.9Zm0-1.4h-.9v-.9h.9Zm0-1.41h-.9v-.9h.9Zm0-1.4h-.9V22.4h.9Zm0-1.41h-.9V21h.9Zm0-1.41h-.9v-.9h.9Zm0-1.4h-.9v-.9h.9Zm0-1.41h-.9v-.9h.9Zm0-1.4h-.9v-.91h.9Zm0-1.41h-.9V14h.9Zm0-1.41h-.9v-.9h.9Zm0-1.4h-.9v-.9h.9Zm0-1.41h-.9v-.9h.9Zm1.21,16.87h-.9v-.9h.9Zm0-1.4h-.9v-.9h.9Zm0-1.41h-.9v-.9h.9Zm0-1.4h-.9V22.4h.9Zm0-1.41h-.9V21h.9Zm0-1.41h-.9v-.9h.9Zm0-1.4h-.9v-.9h.9Zm0-1.41h-.9v-.9h.9Zm0-1.4h-.9v-.91h.9Zm0-1.41h-.9V14h.9Zm0-1.41h-.9v-.9h.9Zm0-1.4h-.9v-.9h.9Zm0-1.41h-.9v-.9h.9ZM20,26.12h-.9v-.9H20Zm0-1.41h-.9v-.9H20Zm0-1.4h-.9V22.4H20Zm0-1.41h-.9V21H20Zm0-1.41h-.9v-.9H20Zm0-1.4h-.9v-.9H20Zm0-1.41h-.9v-.9H20Zm0-1.4h-.9v-.91H20Zm0-1.41h-.9V14H20Zm0-1.41h-.9v-.9H20Zm0-1.4h-.9v-.9H20Zm0-1.41h-.9v-.9H20ZM16.7,28.93l.45.36.45-.36Z"/><path class="cls-1" d="M28.69,8V27l.44.36v-.23h4.21v.48h-3.9l.3.24h2.77v.48H30.33l.34.27h1.8l.5-.4a2.54,2.54,0,0,1,.8-.45v-17Zm.44,3.67h3.38v.48H29.13Zm0,1.47h3.38v.48H29.13Zm0,1.47h3.38V15H29.13Zm0,1.47h3.38v.49H29.13Zm0,1.48h3.38V18H29.13Zm0,1.47h3.38v.48H29.13Zm0,1.47h3.38v.48H29.13Zm0,1.47h3.38v.48H29.13Zm0,1.47h3.38v.48H29.13Zm0,1.48h3.38v.48H29.13Zm3.38,1.95H29.13v-.48h3.38Zm.83-.72H29.13v-.48h4.21Zm0-1.48H29.13v-.48h4.21Zm0-1.47H29.13v-.48h4.21Zm0-1.47H29.13V21.2h4.21Zm0-1.47H29.13v-.48h4.21Zm0-1.47H29.13v-.48h4.21Zm0-1.47H29.13v-.49h4.21Zm0-1.48H29.13v-.48h4.21Zm0-1.47H29.13v-.48h4.21Zm0-1.47H29.13v-.48h4.21Zm0-1.47H29.13V10.9h4.21Zm-1.78,17.9h0l.3-.24h-.62Z"/><path class="cls-1" d="M44.92,41.55l-1-1.44-1.55-1.27-.64-.16c-.71-.17-.82-1.47-.86-2-.09-1.15.65-1.68,1.17-2.62,0-.05.12-.07.23-.07s.59.07.74.07h0a2.56,2.56,0,0,0,1.33-.62,1.43,1.43,0,0,0,.3-.79,1.83,1.83,0,0,0,0-.47c-.26-1-1.83-1.08-2-2A7.19,7.19,0,0,1,42.94,28a6.91,6.91,0,0,0,.1-1c.37-.2,1-.19.85-.75l-.26-.62a3,3,0,0,1-.39-.86c-.11-.41,0-.8-.48-1a1.62,1.62,0,0,0-.62-.11H42a2.1,2.1,0,0,0-1.13.24v.22a.83.83,0,0,1-.44.17A.41.41,0,0,1,40,24c-.09-.2,0-.44,0-.66a1,1,0,0,0-.3-.8,4.09,4.09,0,0,0-1.14-.9h-.24a4.43,4.43,0,0,1-.73.11.66.66,0,0,1-.52-.2.82.82,0,0,1,0-.9.74.74,0,0,0,.11-.24A.43.43,0,0,0,37,20a13.4,13.4,0,0,0-1.66-.48v1l.5.12.27.06a1.55,1.55,0,0,0,1.56,2,3.93,3.93,0,0,0,.72-.09h0a4.85,4.85,0,0,1,.65.58.5.5,0,0,1,.05.07v.07a1.54,1.54,0,0,0,0,1.07,1.36,1.36,0,0,0,1.24.82,1.73,1.73,0,0,0,1-.36l.35-.26h.51a3,3,0,0,0,.07.44,3.89,3.89,0,0,0,.46,1h0a.88.88,0,0,0-.2.09l-.5.27V27a6.84,6.84,0,0,1-.09.85c0,.15-.07.33-.11.53a4.7,4.7,0,0,0-.17,1.84,2.49,2.49,0,0,0,1.42,1.64c.26.15.57.33.6.46a.39.39,0,0,1,0,.16.51.51,0,0,1-.06.24,2,2,0,0,1-.68.3l-.14,0a4.93,4.93,0,0,0-.57,0,1.11,1.11,0,0,0-1.07.56,6.4,6.4,0,0,1-.42.64,3.62,3.62,0,0,0-.86,2.51c.05.7.19,2.55,1.58,2.9l.43.11,1.28,1,.6.88a12.69,12.69,0,0,1-1.2,1.26,1,1,0,0,1-.44.11.4.4,0,0,1-.3-.1l0,0a1.54,1.54,0,0,0-.64-.58,1.45,1.45,0,0,0-.6-.12h-.1a8.35,8.35,0,0,0-1.3.12c-.86.15-1.39.47-1.57.95l-.61.11a4,4,0,0,0-.79.16,4.21,4.21,0,0,0-1.64,1.09A3,3,0,0,0,34,46.06a1.51,1.51,0,0,0,1.3,1.53l.1,0s0,.06,0,.08a3.33,3.33,0,0,0,0,.46,1.71,1.71,0,0,0,.1.5l-.19.08a5.27,5.27,0,0,0-.76.5,2.32,2.32,0,0,1-.43.29,1.15,1.15,0,0,1-.24.07,11.57,11.57,0,0,1-1.63.19l-.43,0a5.24,5.24,0,0,0-1,.18,3.43,3.43,0,0,1-.76.14h-.18c0-.07-.06-.19-.09-.28a4.17,4.17,0,0,0-.26-.78,3,3,0,0,0-2.42-1.52c-.68-.12-.88-.19-1-.42a9.09,9.09,0,0,0-1-1.76c.25-.45,1.08-2.16.08-3a2.11,2.11,0,0,0-.91-.43h0L24,41.84c-.12,0-.32-.07-.47-.12a1.56,1.56,0,0,0-1.44-1.25l-.09,0-.11,0a4.64,4.64,0,0,0-1-.14,2.35,2.35,0,0,0-1.48.51l-.05,0-.16-.07a2.22,2.22,0,0,0-.27-.66,3,3,0,0,0-1.42-.81l-.19-.07L17,39.05a4.72,4.72,0,0,0-1.92-.62,1.55,1.55,0,0,0-.89.26,1.37,1.37,0,0,0-.51,1.57l0,0a2.29,2.29,0,0,0-.46.17,2.64,2.64,0,0,0-.87-.15,2.49,2.49,0,0,0-1.18.3l-.65.32-.33.16h0a.82.82,0,0,1-.4.1,3.29,3.29,0,0,1-.62-.1A4.75,4.75,0,0,0,8.09,41a2.62,2.62,0,0,0-.88.14,2,2,0,0,1-.29-.1,2.74,2.74,0,0,0-1-.22,2,2,0,0,0-.59.09,2.54,2.54,0,0,0-.78.45.06.06,0,0,0,0,0c0-.08.05-.16.07-.23.21-.9-.64-1.43-1.39-1.89L3,39l-.32-.54-.14-.24-.25-.13-1-.47-.18-.14A3.33,3.33,0,0,1,1,36.13h.3l.53,0a1.17,1.17,0,0,0,1.07-.5h0a4.39,4.39,0,0,0,.42-1.15c.07-.23.13-.41.17-.56a3.55,3.55,0,0,0,.68-1.54c0-.1.06-.23.09-.34a1.91,1.91,0,0,0,1.1.46H5.4a1.92,1.92,0,0,0,1-.35l0,0h0a2.91,2.91,0,0,0,1.68.71A1.64,1.64,0,0,0,9,32.61a1.76,1.76,0,0,0,.8-1.87,2.26,2.26,0,0,0-1.18-1.43A1.71,1.71,0,0,1,9,28.68l.11,0a5.25,5.25,0,0,0,.82.1,1.17,1.17,0,0,0,.8-.26,1.82,1.82,0,0,0,.5-1.67c0-.07,0-.19,0-.24a3.11,3.11,0,0,1,.36-.78l.3-.54c.36-.74-.22-1.16-.77-1.56l-.2-.15a2.67,2.67,0,0,0,.39-.88,2.16,2.16,0,0,0-.21-1.15,1.79,1.79,0,0,0-.6-1.75l.31-.44.31-.45-.24-.5a2.1,2.1,0,0,1-.27-1.16,2.57,2.57,0,0,0-.66-1.49l.05-.11a1,1,0,0,0,.36.07,1.06,1.06,0,0,0,.31-.05,1,1,0,0,0,.71-.85s0,0,0,0a.56.56,0,0,0,0-.08,1.72,1.72,0,0,0,.52.08,1.93,1.93,0,0,0,1.11-.41,2.45,2.45,0,0,0,.35-.29V12.75a6.1,6.1,0,0,1-.9.86,1,1,0,0,1-.56.24,2,2,0,0,1-.64-.2.15.15,0,0,0-.09,0c-.17,0-.34.22-.43.34a2.75,2.75,0,0,0-.26.4l-.09.2s0,.19-.07.21h0s-.11-.08-.15-.1-.2-.11-.2-.13a.68.68,0,0,0-.3-.11H9.63c-.27.09-.66,1.23-.8,1.5.25.29.82.9.82,1.33A2.88,2.88,0,0,0,10,18.84L9.23,20c.65.6,1.25.86.78,1.74,0,0,0,0,0,0s.36.68.33.82a6.48,6.48,0,0,1-.75,1.33c.09.07,1.42,1,1.4,1a6.39,6.39,0,0,0-.74,1.59c-.07.35.16,1.08-.15,1.33a.35.35,0,0,1-.2,0c-.28,0-.74-.12-.9-.13H9c-.74,0-1.1,1-1.3,1.6a.5.5,0,0,0,0,.43.55.55,0,0,0,.19.18c.39.26,1,.51,1.08,1a.83.83,0,0,1-.36.86.73.73,0,0,1-.4.11c-.51,0-1-.49-1.43-.74H6.35c-.29,0-.6.4-.95.4h0c-.37,0-.73-.41-1-.62l-.66.22c-.53.2-.44,1.85-1.1,2.25a13.8,13.8,0,0,1-.55,1.74s-.12.05-.26.05-.67,0-.92,0l-.21,0a.87.87,0,0,0-.66.89,4.43,4.43,0,0,0,.35,2l.47.35,1,.52.41.68c.11.18,1.52.85,1.44,1.19-.13.55-.6,1.79.42,1.79h.1c.55,0,.88-.66,1.41-.83a.77.77,0,0,1,.29,0c.46,0,.87.32,1.31.32a.84.84,0,0,0,.27,0,1.78,1.78,0,0,1,.59-.1c.58,0,1.11.25,1.68.25a1.75,1.75,0,0,0,.85-.21l1-.49a1.72,1.72,0,0,1,.76-.2,2.37,2.37,0,0,1,1,.28,1.16,1.16,0,0,1,.88-.36,3,3,0,0,1,.85.16l.33-.52h0c-.27,0-1.2-1-.66-1.36a.6.6,0,0,1,.35-.1,6.3,6.3,0,0,1,1.93.73,3.45,3.45,0,0,1,1.2.59s.24.66.08.66h0L19.5,42l.52-.41a1.4,1.4,0,0,1,.89-.31,5.38,5.38,0,0,1,.93.14c.48.1.78.12.8.68s1,.66,1.42.76a1.3,1.3,0,0,1,.54.23c.42.37-.08,1.52-.3,1.91l-.25.43.25.43a8.85,8.85,0,0,1,1,1.71C26,49,28,48,28.7,49.49c.35.72.15,1.51,1.24,1.6h.15c.61,0,1.2-.28,1.8-.32a16.14,16.14,0,0,0,2.19-.25,1.52,1.52,0,0,0,.47-.15c.43-.22.76-.57,1.18-.78s.94-.31,1-1a.55.55,0,0,1-.36-.55c0-.23,0-.46,0-.7-.12-1-1.44-.47-1.4-1.3a2.09,2.09,0,0,1,.36-.9,3.28,3.28,0,0,1,1.23-.82,18.69,18.69,0,0,0,2-.4v-.35c0-.43,1.61-.52,2-.52h.06a.64.64,0,0,1,.24,0,1,1,0,0,1,.32.34,1.29,1.29,0,0,0,1.06.47,1.86,1.86,0,0,0,1-.26C43.39,43.55,45.11,41.83,44.92,41.55Z"/><rect class="cls-1" x="21.98" y="32.23" width="2.09" height="2.09" rx="1.04"/><rect class="cls-1" x="25.04" y="32.23" width="2.09" height="2.09" rx="1.04"/><rect class="cls-1" x="21.98" y="35.09" width="2.09" height="2.09" rx="1.04"/><rect class="cls-1" x="25.04" y="35.09" width="2.09" height="2.09" rx="1.04"/><path class="cls-1" d="M35.94,30.24h0l-3,2.46a2.11,2.11,0,0,1-2.66,0L24.36,28,18.48,32.7a2.11,2.11,0,0,1-2.66,0l-3-2.46h0a1.29,1.29,0,0,1,2.1-1l2.27,1.84,5-4,2.21-1.78L26.57,27l5,4,2.27-1.84A1.29,1.29,0,0,1,35.94,30.24Z"/></g></g></svg>