<svg id="Layer_1" data-name="Layer 1" xmlns="http://www.w3.org/2000/svg" viewBox="0 0 153.61 51.09"><defs><style>.cls-1{fill:#f2f2f2;}</style></defs><g id="Layer_2" data-name="Layer 2"><g id="Layer_1-2" data-name="Layer 1-2"><path class="cls-1" d="M26.92,5.64l-2.2-2.58L24.63,0l-.1,3.06-2.2,2.58h-.54v19.9l.49-.4V23.68h.44v1.11l.41-.34v-.77h.44v.42l.41-.33v-.09h.11l.27-.22.47.38v-.16h.44v.52l.42.34v-.86h.43v1.2l.42.34V23.68H27v1.89l.49.4V5.64Zm-4.2,17.45h-.44V21.18h.44Zm0-2.5h-.44V18.68h.44Zm0-2.5h-.44V16.18h.44Zm0-2.5h-.44V13.67h.44Zm0-2.5h-.44V11.17h.44Zm0-2.5h-.44V8.67h.44Zm0-2.5h-.44V6.17h.44Zm.85,15h-.44V21.18h.44Zm0-2.5h-.44V18.68h.44Zm0-2.5h-.44V16.18h.44Zm0-2.5h-.44V13.67h.44Zm0-2.5h-.44V11.17h.44Zm0-2.5h-.44V8.67h.44Zm0-2.5h-.44V6.17h.44Zm.85,15H24V21.18h.44Zm0-2.5H24V18.68h.44Zm0-2.5H24V16.18h.44Zm0-2.5H24V13.67h.44Zm0-2.5H24V11.17h.44Zm0-2.5H24V8.67h.44Zm0-2.5H24V6.17h.44Zm.85,15h-.44V21.18h.44Zm0-2.5h-.44V18.68h.44Zm0-2.5h-.44V16.18h.44Zm0-2.5h-.44V13.67h.44Zm0-2.5h-.44V11.17h.44Zm0-2.5h-.44V8.67h.44Zm0-2.5h-.44V6.17h.44Zm.85,15h-.43V21.18h.43Zm0-2.5h-.43V18.68h.43Zm0-2.5h-.43V16.18h.43Zm0-2.5h-.43V13.67h.43Zm0-2.5h-.43V11.17h.43Zm0-2.5h-.43V8.67h.43Zm0-2.5h-.43V6.17h.43Zm.85,15h-.43V21.18H27Zm0-2.5h-.43V18.68H27Zm0-2.5h-.43V16.18H27Zm0-2.5h-.43V13.67H27Zm0-2.5h-.43V11.17H27Zm0-2.5h-.43V8.67H27Zm0-2.5h-.43V6.17H27Z" transform="translate(-0.03)"/><path class="cls-1" d="M18.44,6.94v.77H17.19v.77H16v.77H15V27.71a2.1,2.1,0,0,1,.61.32h.83v.65l.31.25V28h.9v.9l.31-.25V28h.8l.63-.51h-.22v-.9H20V27l.54-.44V6.94ZM16.39,27.52h-.9v-.9h.9Zm0-1.4h-.9v-.9h.9Zm0-1.41h-.9v-.9h.9Zm0-1.4h-.9V22.4h.9Zm0-1.41h-.9V21h.9Zm0-1.41h-.9v-.9h.9Zm0-1.4h-.9v-.9h.9Zm0-1.41h-.9v-.9h.9Zm0-1.4h-.9v-.91h.9Zm0-1.41h-.9V14h.9Zm0-1.41h-.9v-.9h.9Zm0-1.4h-.9v-.9h.9Zm0-1.41h-.9v-.9h.9ZM17.6,27.52h-.9v-.9h.9Zm0-1.4h-.9v-.9h.9Zm0-1.41h-.9v-.9h.9Zm0-1.4h-.9V22.4h.9Zm0-1.41h-.9V21h.9Zm0-1.41h-.9v-.9h.9Zm0-1.4h-.9v-.9h.9Zm0-1.41h-.9v-.9h.9Zm0-1.4h-.9v-.91h.9Zm0-1.41h-.9V14h.9Zm0-1.41h-.9v-.9h.9Zm0-1.4h-.9v-.9h.9Zm0-1.41h-.9v-.9h.9Zm1.21,16.87h-.9v-.9h.9Zm0-1.4h-.9v-.9h.9Zm0-1.41h-.9v-.9h.9Zm0-1.4h-.9V22.4h.9Zm0-1.41h-.9V21h.9Zm0-1.41h-.9v-.9h.9Zm0-1.4h-.9v-.9h.9Zm0-1.41h-.9v-.9h.9Zm0-1.4h-.9v-.91h.9Zm0-1.41h-.9V14h.9Zm0-1.41h-.9v-.9h.9Zm0-1.4h-.9v-.9h.9Zm0-1.41h-.9v-.9h.9ZM20,26.12h-.9v-.9H20Zm0-1.41h-.9v-.9H20Zm0-1.4h-.9V22.4H20Zm0-1.41h-.9V21H20Zm0-1.41h-.9v-.9H20Zm0-1.4h-.9v-.9H20Zm0-1.41h-.9v-.9H20Zm0-1.4h-.9v-.91H20Zm0-1.41h-.9V14H20Zm0-1.41h-.9v-.9H20Zm0-1.4h-.9v-.9H20Zm0-1.41h-.9v-.9H20ZM16.7,28.93l.45.36.45-.36Z" transform="translate(-0.03)"/><path class="cls-1" d="M28.69,8V27l.44.36v-.23h4.21v.48h-3.9l.3.24h2.77v.48H30.33l.34.27h1.8l.5-.4a2.54,2.54,0,0,1,.8-.45v-17Zm.44,3.67h3.38v.48H29.13Zm0,1.47h3.38v.48H29.13Zm0,1.47h3.38V15H29.13Zm0,1.47h3.38v.49H29.13Zm0,1.48h3.38V18H29.13Zm0,1.47h3.38v.48H29.13Zm0,1.47h3.38V21H29.13Zm0,1.47h3.38v.48H29.13Zm0,1.47h3.38v.48H29.13Zm0,1.48h3.38v.48H29.13Zm3.38,1.95H29.13v-.48h3.38Zm.83-.72H29.13v-.48h4.21Zm0-1.48H29.13v-.48h4.21Zm0-1.47H29.13v-.48h4.21Zm0-1.47H29.13V21.2h4.21Zm0-1.47H29.13v-.48h4.21Zm0-1.47H29.13v-.48h4.21Zm0-1.47H29.13v-.49h4.21Zm0-1.48H29.13v-.48h4.21Zm0-1.47H29.13v-.48h4.21Zm0-1.47H29.13v-.48h4.21Zm0-1.47H29.13V10.9h4.21Zm-1.78,17.9h0l.3-.24h-.62Z" transform="translate(-0.03)"/><path class="cls-1" d="M61.74,15.93V20.5a1.73,1.73,0,0,1-.51,1.33,1.86,1.86,0,0,1-1.35.5,1.9,1.9,0,0,1-1.36-.5A1.78,1.78,0,0,1,58,20.5h1a1,1,0,0,0,.21.66.87.87,0,0,0,1.22,0,1,1,0,0,0,.21-.66V15.93Z" transform="translate(-0.03)"/><path class="cls-1" d="M67.24,21H64.59l-.45,1.29H63.05L65.32,16h1.2l2.27,6.34H67.7ZM67,20.12l-1-2.94-1,2.94Z" transform="translate(-0.03)"/><path class="cls-1" d="M70.71,22.1a1.84,1.84,0,0,1-.8-.63,1.61,1.61,0,0,1-.29-1h1.11a1,1,0,0,0,.32.68,1.19,1.19,0,0,0,.81.26,1.22,1.22,0,0,0,.84-.26.82.82,0,0,0,.3-.67.76.76,0,0,0-.19-.52,1.44,1.44,0,0,0-.46-.31,6.82,6.82,0,0,0-.77-.23,9,9,0,0,1-1-.33,1.71,1.71,0,0,1-.66-.53,1.55,1.55,0,0,1-.27-1,1.67,1.67,0,0,1,.27-.95,1.75,1.75,0,0,1,.77-.63,2.59,2.59,0,0,1,1.13-.22,2.41,2.41,0,0,1,1.51.46A1.7,1.7,0,0,1,74,17.57H72.82A.79.79,0,0,0,72.5,17a1.26,1.26,0,0,0-.8-.24A1.12,1.12,0,0,0,71,17a.77.77,0,0,0-.29.66.7.7,0,0,0,.18.48,1.2,1.2,0,0,0,.45.29,5,5,0,0,0,.75.24,7,7,0,0,1,1,.35,1.68,1.68,0,0,1,.68.53,1.55,1.55,0,0,1,.27,1,1.72,1.72,0,0,1-.26.91,1.92,1.92,0,0,1-.75.69,2.48,2.48,0,0,1-1.17.26A2.9,2.9,0,0,1,70.71,22.1Z" transform="translate(-0.03)"/><path class="cls-1" d="M83.51,15.93l-1.87,6.33H80.46l-1.33-4.79-1.41,4.79H76.56l-1.8-6.34h1.1l1.32,5.16,1.42-5.16h1.16l1.32,5.13,1.32-5.13Z" transform="translate(-0.03)"/><path class="cls-1" d="M88.18,21H85.53l-.45,1.29H84L86.26,16h1.2l2.27,6.34H88.64Zm-.29-.85-1-2.94-1,2.94Z" transform="translate(-0.03)"/><path class="cls-1" d="M95.91,22.26h-1l-3.13-4.72v4.72h-1V15.92h1l3.13,4.72V15.92h1Z" transform="translate(-0.03)"/><path class="cls-1" d="M101.37,15.93v.85H99.68v5.48h-1V16.78H97v-.85Z" transform="translate(-0.03)"/><path class="cls-1" d="M109.84,15.93v6.33h-1V19.49h-3v2.77h-1V15.93h1v2.72h3V15.93Z" transform="translate(-0.03)"/><path class="cls-1" d="M112.46,21.91a3.08,3.08,0,0,1-1.17-1.15,3.3,3.3,0,0,1-.44-1.68,3.22,3.22,0,0,1,.44-1.66,3.08,3.08,0,0,1,1.17-1.15,3.37,3.37,0,0,1,3.26,0,2.88,2.88,0,0,1,1.17,1.15,3.22,3.22,0,0,1,.43,1.66,3.29,3.29,0,0,1-.43,1.68,2.88,2.88,0,0,1-1.17,1.15A3.37,3.37,0,0,1,112.46,21.91Zm2.75-.77a2.09,2.09,0,0,0,.77-.82,2.67,2.67,0,0,0,.27-1.24,2.59,2.59,0,0,0-.27-1.22,2,2,0,0,0-.77-.82A2.48,2.48,0,0,0,113,17a2,2,0,0,0-.77.82A2.6,2.6,0,0,0,112,19a2.65,2.65,0,0,0,.28,1.24,2,2,0,0,0,.77.82,2.48,2.48,0,0,0,2.21,0Z" transform="translate(-0.03)"/><path class="cls-1" d="M119.37,15.93v4a1.43,1.43,0,0,0,.38,1.08,1.62,1.62,0,0,0,2.06,0,1.43,1.43,0,0,0,.38-1.08v-4h1v4a2.51,2.51,0,0,1-.33,1.31,2.11,2.11,0,0,1-.9.8,3,3,0,0,1-1.25.27,2.8,2.8,0,0,1-1.24-.27,2,2,0,0,1-.89-.8,2.51,2.51,0,0,1-.33-1.31v-4Z" transform="translate(-0.03)"/><path class="cls-1" d="M125.56,22.1a1.84,1.84,0,0,1-.8-.63,1.55,1.55,0,0,1-.29-1h1.11a1,1,0,0,0,.32.68,1.19,1.19,0,0,0,.81.26,1.18,1.18,0,0,0,.83-.26.82.82,0,0,0,.3-.67.77.77,0,0,0-.18-.52,1.38,1.38,0,0,0-.47-.31,6.82,6.82,0,0,0-.77-.23,9,9,0,0,1-1-.33,1.71,1.71,0,0,1-.66-.53,1.48,1.48,0,0,1-.28-1,1.68,1.68,0,0,1,.28-.95,1.73,1.73,0,0,1,.76-.63,2.79,2.79,0,0,1,1.14-.22,2.41,2.41,0,0,1,1.51.46,1.71,1.71,0,0,1,.65,1.26h-1.15a.83.83,0,0,0-.33-.59,1.25,1.25,0,0,0-.79-.24,1.13,1.13,0,0,0-.73.22.84.84,0,0,0-.28.66.7.7,0,0,0,.18.48,1.2,1.2,0,0,0,.45.29,5,5,0,0,0,.75.24,7,7,0,0,1,1,.35,1.59,1.59,0,0,1,.67.53,1.48,1.48,0,0,1,.28,1,1.72,1.72,0,0,1-.26.91,1.92,1.92,0,0,1-.75.69,2.48,2.48,0,0,1-1.17.26A2.71,2.71,0,0,1,125.56,22.1Z" transform="translate(-0.03)"/><path class="cls-1" d="M131.16,16.77v1.86h2.18v.85h-2.18v1.94h2.46v.84h-3.5V15.92h3.5v.85Z" transform="translate(-0.03)"/><path class="cls-1" d="M141.35,15.93v.85h-1.69v5.48h-1V16.78H137v-.85Z" transform="translate(-0.03)"/><path class="cls-1" d="M146.21,21h-2.65l-.46,1.29H142L144.27,16h1.2l2.27,6.34h-1.1Zm-.29-.85-1-2.94-1,2.94Z" transform="translate(-0.03)"/><path class="cls-1" d="M151.64,19.1l2,3.16h-1.16L151,20l-1.34,2.29H148.5l2-3.16-2-3.17h1.17l1.44,2.32L152.45,16h1.16Z" transform="translate(-0.03)"/><path class="cls-1" d="M62.11,29.68H59.46L59,31H57.92l2.27-6.34h1.2L63.66,31h-1.1Zm-.29-.85-1-2.94-1,2.94Z" transform="translate(-0.03)"/><path class="cls-1" d="M69.84,31h-1l-3.12-4.73V31h-1V24.63h1l3.12,4.72V24.63h1Z" transform="translate(-0.03)"/><path class="cls-1" d="M75,25a2.87,2.87,0,0,1,1.18,1.11,3.43,3.43,0,0,1,.41,1.69,3.36,3.36,0,0,1-.41,1.67A2.66,2.66,0,0,1,75,30.59a4,4,0,0,1-1.77.38h-2V24.64h2.07A3.82,3.82,0,0,1,75,25Zm0,4.52a2.28,2.28,0,0,0,.59-1.69A2.35,2.35,0,0,0,75,26.11a2.19,2.19,0,0,0-1.7-.62h-1v4.63h1A2.26,2.26,0,0,0,75,29.52Z" transform="translate(-0.03)"/><path class="cls-1" d="M80.11,26.12A3.1,3.1,0,0,1,81.29,25a3.5,3.5,0,0,1,3.42.08,2.78,2.78,0,0,1,1.14,1.41H84.61a1.7,1.7,0,0,0-.69-.74,2,2,0,0,0-1-.25,2.19,2.19,0,0,0-1.12.28,1.94,1.94,0,0,0-.77.81A3,3,0,0,0,81,29a2.09,2.09,0,0,0,.77.82,2.19,2.19,0,0,0,1.12.28,2.05,2.05,0,0,0,1-.24,1.78,1.78,0,0,0,.69-.75h1.24a2.71,2.71,0,0,1-1.14,1.4,3.36,3.36,0,0,1-1.8.49,3.21,3.21,0,0,1-1.63-.41,3.15,3.15,0,0,1-1.17-1.15,3.48,3.48,0,0,1,0-3.34Z" transform="translate(-0.03)"/><path class="cls-1" d="M88.33,30.62a3.06,3.06,0,0,1-1.18-1.16,3.48,3.48,0,0,1,0-3.34A3.1,3.1,0,0,1,88.33,25a3.41,3.41,0,0,1,3.25,0,3.08,3.08,0,0,1,1.17,1.15,3.48,3.48,0,0,1,0,3.34,3,3,0,0,1-1.17,1.16,3.41,3.41,0,0,1-3.25,0Zm2.74-.78a2,2,0,0,0,.77-.82,2.86,2.86,0,0,0,0-2.46,1.94,1.94,0,0,0-.77-.81,2.4,2.4,0,0,0-2.24,0,1.94,1.94,0,0,0-.77.81,2.86,2.86,0,0,0,0,2.46,2,2,0,0,0,.77.82A2.29,2.29,0,0,0,91.07,29.84Z" transform="translate(-0.03)"/><path class="cls-1" d="M99.4,31h-1l-3.12-4.73V31h-1V24.63h1l3.12,4.72V24.63h1Z" transform="translate(-0.03)"/><path class="cls-1" d="M101.7,30.81a2,2,0,0,1-.8-.63,1.68,1.68,0,0,1-.29-1h1.11a1,1,0,0,0,.33.67,1.12,1.12,0,0,0,.8.27,1.27,1.27,0,0,0,.84-.26.83.83,0,0,0,.3-.67.72.72,0,0,0-.19-.52,1.29,1.29,0,0,0-.46-.31c-.19-.07-.44-.15-.77-.24a5.86,5.86,0,0,1-1-.33,1.68,1.68,0,0,1-.66-.52,1.53,1.53,0,0,1-.27-.95,1.67,1.67,0,0,1,.27-.95,1.75,1.75,0,0,1,.77-.63,2.79,2.79,0,0,1,1.14-.22,2.36,2.36,0,0,1,1.5.46,1.71,1.71,0,0,1,.65,1.26h-1.14a.83.83,0,0,0-.33-.59,1.12,1.12,0,0,0-.79-.25,1.14,1.14,0,0,0-.73.23.79.79,0,0,0-.28.66.68.68,0,0,0,.17.47,1.15,1.15,0,0,0,.45.3l.75.24a9.06,9.06,0,0,1,1,.34,1.82,1.82,0,0,1,.67.53,1.6,1.6,0,0,1,.28,1,1.78,1.78,0,0,1-.26.92,1.92,1.92,0,0,1-.76.68,2.48,2.48,0,0,1-1.17.26A2.92,2.92,0,0,1,101.7,30.81Z" transform="translate(-0.03)"/><path class="cls-1" d="M107.3,24.64v4a1.28,1.28,0,0,0,1.09,1.45,1.82,1.82,0,0,0,.33,0,1.55,1.55,0,0,0,1.07-.36,1.46,1.46,0,0,0,.37-1.09v-4h1v4a2.32,2.32,0,0,1-.34,1.31,2.05,2.05,0,0,1-.9.8,3.1,3.1,0,0,1-1.24.26,3,3,0,0,1-1.25-.26,2,2,0,0,1-.89-.8,2.6,2.6,0,0,1-.32-1.31v-4Z" transform="translate(-0.03)"/><path class="cls-1" d="M113.59,30.13h2.14V31h-3.18V24.64h1Z" transform="translate(-0.03)"/><path class="cls-1" d="M120.68,24.64v.85H119V31h-1V25.49h-1.7v-.85Z" transform="translate(-0.03)"/><path class="cls-1" d="M125.54,29.68h-2.65L122.44,31h-1.09l2.27-6.34h1.2L127.09,31H126Zm-.29-.85-1-2.94-1,2.94Z" transform="translate(-0.03)"/><path class="cls-1" d="M133.27,31h-1l-3.12-4.73V31h-1V24.63h1l3.12,4.72V24.63h1Z" transform="translate(-0.03)"/><path class="cls-1" d="M138.72,24.64v.85H137V31h-1V25.49h-1.69v-.85Z" transform="translate(-0.03)"/><path class="cls-1" d="M140.71,30.81a1.84,1.84,0,0,1-.8-.63,1.55,1.55,0,0,1-.29-1h1.11a1,1,0,0,0,.32.67,1.14,1.14,0,0,0,.81.27,1.25,1.25,0,0,0,.83-.26.85.85,0,0,0,.31-.67.72.72,0,0,0-.19-.52,1.25,1.25,0,0,0-.47-.31c-.18-.07-.44-.15-.77-.24a5.86,5.86,0,0,1-1-.33,1.6,1.6,0,0,1-.66-.52,1.53,1.53,0,0,1-.27-.95,1.68,1.68,0,0,1,1-1.58,2.79,2.79,0,0,1,1.14-.22,2.41,2.41,0,0,1,1.51.46,1.71,1.71,0,0,1,.65,1.26h-1.15a.83.83,0,0,0-.33-.59,1.12,1.12,0,0,0-.79-.25,1.14,1.14,0,0,0-.73.23.84.84,0,0,0-.28.66.65.65,0,0,0,.18.47,1.15,1.15,0,0,0,.45.3q.27.11.75.24a6.93,6.93,0,0,1,1,.34,1.82,1.82,0,0,1,.67.53,1.48,1.48,0,0,1,.28,1,1.75,1.75,0,0,1-.26.92,1.82,1.82,0,0,1-.75.68,2.48,2.48,0,0,1-1.17.26A2.77,2.77,0,0,1,140.71,30.81Z" transform="translate(-0.03)"/><path class="cls-1" d="M51.35,7.14V43.67h-.42V7.14Z" transform="translate(-0.03)"/><path class="cls-1" d="M44.92,41.55l-1-1.44-1.55-1.27-.64-.16c-.71-.17-.82-1.47-.86-2-.09-1.15.65-1.68,1.17-2.62,0-.05.12-.07.23-.07s.59.07.74.07h0a2.56,2.56,0,0,0,1.33-.62,1.43,1.43,0,0,0,.3-.79,1.85,1.85,0,0,0,0-.47c-.26-1-1.83-1.08-2-2a7.31,7.31,0,0,1,.3-2.18,6.64,6.64,0,0,0,.1-1c.37-.2,1-.19.85-.75l-.26-.62a2.92,2.92,0,0,1-.39-.86c-.11-.41,0-.8-.48-1a1.66,1.66,0,0,0-.62-.11H42a2.12,2.12,0,0,0-1.13.24v.22a.8.8,0,0,1-.44.17A.41.41,0,0,1,40,24c-.09-.2,0-.44,0-.66a1,1,0,0,0-.3-.8,4,4,0,0,0-1.14-.9h-.24a4.43,4.43,0,0,1-.73.11.68.68,0,0,1-.52-.2.82.82,0,0,1,0-.9.66.66,0,0,0,.11-.24A.43.43,0,0,0,37,20a12.09,12.09,0,0,0-1.66-.48v1l.5.12.27.06a1.54,1.54,0,0,0,1,1.93,1.36,1.36,0,0,0,.53.07,4.43,4.43,0,0,0,.72-.09h0a5.09,5.09,0,0,1,.65.58l.05.07v.07a1.52,1.52,0,0,0,0,1.07,1.34,1.34,0,0,0,1.24.82,1.74,1.74,0,0,0,1-.36l.35-.26h.51a3.11,3.11,0,0,0,.07.44,4.12,4.12,0,0,0,.46,1h0a.72.72,0,0,0-.2.09l-.5.27V27a6.13,6.13,0,0,1-.09.85,3.35,3.35,0,0,1-.11.53,4.59,4.59,0,0,0-.17,1.84,2.5,2.5,0,0,0,1.42,1.64c.26.15.57.33.6.46a.43.43,0,0,1,0,.16.5.5,0,0,1-.06.24,2.17,2.17,0,0,1-.68.3h-.14a5.42,5.42,0,0,0-.57,0,1.11,1.11,0,0,0-1.07.56,7.06,7.06,0,0,1-.42.64,3.64,3.64,0,0,0-.86,2.51c.05.7.19,2.55,1.58,2.9l.43.11,1.28,1,.6.88a11.91,11.91,0,0,1-1.2,1.26,1,1,0,0,1-.44.11.41.41,0,0,1-.3-.1h0a1.56,1.56,0,0,0-.64-.58,1.53,1.53,0,0,0-.6-.12h-.1a9.38,9.38,0,0,0-1.3.12c-.86.15-1.39.47-1.57.95l-.61.11a4.26,4.26,0,0,0-.79.16,4.15,4.15,0,0,0-1.64,1.09A3,3,0,0,0,34,46.06a1.51,1.51,0,0,0,1.3,1.53h.1v.08a3.53,3.53,0,0,0,0,.46,1.71,1.71,0,0,0,.1.5l-.19.08a4.75,4.75,0,0,0-.76.5,2.49,2.49,0,0,1-.43.29,1.09,1.09,0,0,1-.24.07,11.15,11.15,0,0,1-1.63.19h-.43a5.67,5.67,0,0,0-1,.18,3.28,3.28,0,0,1-.76.14h-.18a1.28,1.28,0,0,0-.09-.28,4.2,4.2,0,0,0-.26-.78,3,3,0,0,0-2.42-1.52c-.68-.12-.88-.19-1-.42a9.28,9.28,0,0,0-1-1.76c.25-.45,1.08-2.16.08-3a2.19,2.19,0,0,0-.91-.43h0l-.28,0a1.91,1.91,0,0,1-.47-.12,1.55,1.55,0,0,0-1.44-1.25h-.2a4.82,4.82,0,0,0-1-.14,2.39,2.39,0,0,0-1.48.51h-.05l-.16-.07a2.24,2.24,0,0,0-.27-.66,2.94,2.94,0,0,0-1.42-.81l-.19-.07L17,39.05a4.82,4.82,0,0,0-1.92-.62,1.48,1.48,0,0,0-.89.26,1.37,1.37,0,0,0-.51,1.57h0a2.54,2.54,0,0,0-.46.17,2.57,2.57,0,0,0-.87-.15,2.44,2.44,0,0,0-1.18.3l-.65.32-.33.16h0a.79.79,0,0,1-.4.1,3.21,3.21,0,0,1-.62-.1A4.9,4.9,0,0,0,8.09,41a2.62,2.62,0,0,0-.88.14L6.92,41a2.69,2.69,0,0,0-1-.22,2,2,0,0,0-.59.09,2.44,2.44,0,0,0-.78.45h0a.88.88,0,0,1,.07-.23c.21-.9-.64-1.43-1.39-1.89L3,39l-.32-.54-.14-.24-.25-.13-1-.47-.18-.14A3.25,3.25,0,0,1,1,36.13h.83a1.16,1.16,0,0,0,1.07-.5h0a4.66,4.66,0,0,0,.42-1.15c.07-.23.13-.41.17-.56a3.51,3.51,0,0,0,.68-1.54A1.56,1.56,0,0,1,4.26,32a1.87,1.87,0,0,0,1.1.46h0a1.89,1.89,0,0,0,1-.35h0a2.92,2.92,0,0,0,1.68.71A1.68,1.68,0,0,0,9,32.61a1.75,1.75,0,0,0,.8-1.87,2.28,2.28,0,0,0-1.18-1.43A1.69,1.69,0,0,1,9,28.68h.11a5.57,5.57,0,0,0,.82.1,1.17,1.17,0,0,0,.8-.26,1.81,1.81,0,0,0,.5-1.67v-.24a2.77,2.77,0,0,1,.36-.78l.3-.54c.36-.74-.22-1.16-.77-1.56l-.2-.15a2.89,2.89,0,0,0,.39-.88,2.17,2.17,0,0,0-.21-1.15,1.79,1.79,0,0,0-.6-1.75l.31-.44.31-.45-.24-.5a2.14,2.14,0,0,1-.27-1.16A2.51,2.51,0,0,0,10,15.76l.05-.11a.89.89,0,0,0,.36.07,1.06,1.06,0,0,0,.31-.05,1,1,0,0,0,.71-.85h0v-.08a1.82,1.82,0,0,0,.52.08A2,2,0,0,0,13,14.41a2.45,2.45,0,0,0,.35-.29V12.75a6.1,6.1,0,0,1-.9.86,1,1,0,0,1-.56.24,2.07,2.07,0,0,1-.64-.2h-.09c-.17,0-.34.22-.43.34a2.48,2.48,0,0,0-.26.4l-.09.2s0,.19-.07.21h0l-.15-.1a.86.86,0,0,1-.2-.13.64.64,0,0,0-.3-.11h0c-.27.09-.66,1.23-.8,1.5.25.29.82.9.82,1.33A2.88,2.88,0,0,0,10,18.84L9.23,20c.65.6,1.25.86.78,1.74h0a3.23,3.23,0,0,1,.33.82,6.69,6.69,0,0,1-.75,1.33c.09.07,1.42,1,1.4,1a6.22,6.22,0,0,0-.74,1.59c-.07.35.16,1.08-.15,1.33a.34.34,0,0,1-.2,0c-.28,0-.74-.12-.9-.13H9c-.74,0-1.1,1-1.3,1.6a.54.54,0,0,0,0,.43.55.55,0,0,0,.19.18c.39.26,1,.51,1.08,1a.84.84,0,0,1-.36.86.8.8,0,0,1-.4.11c-.51,0-1-.49-1.43-.74H6.35c-.29,0-.6.4-.95.4h0c-.37,0-.73-.41-1-.62l-.66.22c-.53.2-.44,1.85-1.1,2.25a13.5,13.5,0,0,1-.55,1.74.76.76,0,0,1-.26,0H.7a.87.87,0,0,0-.66.89,4.44,4.44,0,0,0,.35,2l.47.35,1,.52.41.68c.11.18,1.52.85,1.44,1.19-.13.55-.6,1.79.42,1.79h.1c.55,0,.88-.66,1.41-.83a.71.71,0,0,1,.29,0c.46,0,.87.32,1.31.32h.27A1.7,1.7,0,0,1,8.1,42c.58,0,1.11.25,1.68.25a1.78,1.78,0,0,0,.85-.21l1-.49a1.79,1.79,0,0,1,.76-.2,2.34,2.34,0,0,1,1,.28,1.17,1.17,0,0,1,.88-.36,3,3,0,0,1,.85.16l.33-.52h0c-.27,0-1.2-1-.66-1.36a.62.62,0,0,1,.35-.1,6.36,6.36,0,0,1,1.93.73,3.63,3.63,0,0,1,1.2.59s.24.66.08.66h0l1.15.6.52-.41a1.44,1.44,0,0,1,.89-.31,6,6,0,0,1,.93.14c.48.1.78.12.8.68s1,.66,1.42.76a1.18,1.18,0,0,1,.54.23c.42.37-.08,1.52-.3,1.91l-.25.43.25.43a8.6,8.6,0,0,1,1,1.71C26,49,28,48,28.7,49.49c.35.72.15,1.51,1.24,1.6h.15c.61,0,1.2-.28,1.8-.32a16.14,16.14,0,0,0,2.19-.25,1.36,1.36,0,0,0,.47-.15c.43-.22.76-.57,1.18-.78s.94-.31,1-1a.55.55,0,0,1-.36-.55v-.7c-.12-1-1.44-.47-1.4-1.3a2.14,2.14,0,0,1,.36-.9,3.32,3.32,0,0,1,1.23-.82,19.65,19.65,0,0,0,2-.4v-.35c0-.43,1.61-.52,2-.52h.06a.49.49,0,0,1,.24,0,1,1,0,0,1,.32.34,1.28,1.28,0,0,0,1.06.47,1.85,1.85,0,0,0,1-.26C43.39,43.55,45.11,41.83,44.92,41.55Z" transform="translate(-0.03)"/><rect class="cls-1" x="21.95" y="32.23" width="2.09" height="2.09" rx="1.04"/><rect class="cls-1" x="25.01" y="32.23" width="2.09" height="2.09" rx="1.04"/><rect class="cls-1" x="21.95" y="35.09" width="2.09" height="2.09" rx="1.04"/><rect class="cls-1" x="25.01" y="35.09" width="2.09" height="2.09" rx="1.04"/><path class="cls-1" d="M35.94,30.24h0l-3,2.46a2.11,2.11,0,0,1-2.66,0L24.36,28l-5.88,4.7a2.11,2.11,0,0,1-2.66,0l-3-2.46h0A1.29,1.29,0,0,1,14.11,29a1.31,1.31,0,0,1,.81.29l2.27,1.84,5-4L24.4,25.3,26.57,27l5,4,2.27-1.84a1.29,1.29,0,0,1,1.81.19A1.26,1.26,0,0,1,35.94,30.24Z" transform="translate(-0.03)"/></g></g></svg>